<svg width="1330" height="1333" viewBox="0 0 1330 1333" fill="none" xmlns="http://www.w3.org/2000/svg">
<g clip-path="url(#clip0_16_2)">
<path d="M127.807 1122.94L116.102 1076.77C95.3485 1067.98 74.1157 1060.36 52.5045 1053.96L51.0271 1075.41L45.0354 1051.77C18.2336 1044.11 0 1040.74 0 1040.74C0 1040.74 24.6231 1134.4 76.2854 1206L136.477 1216.57L89.7157 1223.31C96.2143 1231.13 103.198 1238.53 110.626 1245.48C185.771 1315.23 269.47 1347.23 297.571 1316.96C325.672 1286.68 287.534 1205.59 212.389 1135.85C189.093 1114.23 159.829 1096.87 130.535 1083.21L127.807 1122.94Z" fill="#F2F2F2"/>
<path d="M239.121 1072.79L252.964 1027.23C239.745 1008.97 225.508 991.474 210.319 974.821L197.965 992.422L205.052 969.091C186.065 948.686 172.2 936.376 172.2 936.376C172.2 936.376 144.873 1029.28 152.082 1117.27L198.143 1157.44L154.621 1139.04C156.144 1149.09 158.297 1159.04 161.069 1168.83C189.343 1267.38 244.451 1338.04 284.155 1326.65C323.859 1315.26 333.126 1226.13 304.853 1127.58C296.088 1097.02 280.005 1067.04 261.989 1040.21L239.121 1072.79Z" fill="#F2F2F2"/>
<path d="M927.385 315.789H920.084V115.77C920.084 100.567 917.089 85.5125 911.271 71.4667C905.453 57.4208 896.926 44.6585 886.175 33.9082C875.425 23.158 862.663 14.6304 848.617 8.81245C834.571 2.99447 819.517 0 804.314 0H380.533C349.829 0 320.382 12.1972 298.671 33.9082C276.96 55.6193 264.763 85.0658 264.763 115.77V1213.11C264.763 1228.31 267.758 1243.36 273.576 1257.41C279.394 1271.46 287.921 1284.22 298.671 1294.97C309.422 1305.72 322.184 1314.25 336.23 1320.06C350.276 1325.88 365.33 1328.88 380.533 1328.88H804.314C835.018 1328.88 864.464 1316.68 886.174 1294.97C907.885 1273.26 920.082 1243.81 920.082 1213.11V458.166H927.383L927.385 315.789Z" fill="#E6E6E6"/>
<path d="M808.985 30.1082H753.672C756.216 36.3453 757.187 43.1124 756.5 49.8132C755.812 56.514 753.487 62.9429 749.729 68.5335C745.972 74.124 740.897 78.7047 734.952 81.8718C729.007 85.0389 722.374 86.6953 715.638 86.695H472.859C466.124 86.6947 459.491 85.0379 453.547 81.8705C447.602 78.7032 442.528 74.1225 438.771 68.532C435.013 62.9415 432.689 56.5129 432.001 49.8123C431.314 43.1118 432.285 36.345 434.829 30.1082H383.163C360.234 30.1082 338.243 39.2169 322.03 55.4305C305.816 71.6441 296.707 93.6345 296.707 116.564V1212.31C296.707 1235.24 305.816 1257.23 322.03 1273.44C338.243 1289.65 360.234 1298.76 383.163 1298.76H808.985C831.915 1298.76 853.905 1289.65 870.119 1273.44C886.332 1257.23 895.441 1235.24 895.441 1212.31V116.562C895.441 93.633 886.332 71.6431 870.118 55.4298C853.904 39.2166 831.914 30.1082 808.985 30.1082Z" fill="white"/>
<path d="M541.813 466.597C541.812 458.937 543.828 451.413 547.659 444.781C551.489 438.148 557 432.642 563.635 428.816C557.003 424.986 549.48 422.969 541.821 422.968C534.163 422.967 526.639 424.982 520.006 428.811C513.373 432.64 507.865 438.147 504.036 444.78C500.206 451.412 498.19 458.935 498.19 466.594C498.19 474.252 500.206 481.776 504.036 488.408C507.865 495.04 513.373 500.548 520.006 504.377C526.639 508.205 534.163 510.221 541.821 510.22C549.48 510.219 557.003 508.202 563.635 504.372C557 500.547 551.49 495.041 547.659 488.41C543.828 481.778 541.812 474.255 541.813 466.597Z" fill="#CCCCCC"/>
<path d="M596.657 466.597C596.655 458.937 598.671 451.413 602.502 444.78C606.333 438.148 611.843 432.642 618.479 428.816C611.847 424.986 604.323 422.969 596.665 422.968C589.006 422.967 581.483 424.982 574.85 428.811C568.217 432.64 562.709 438.147 558.88 444.78C555.05 451.412 553.034 458.935 553.034 466.594C553.034 474.252 555.05 481.776 558.88 488.408C562.709 495.04 568.217 500.548 574.85 504.377C581.483 508.205 589.006 510.221 596.665 510.22C604.323 510.219 611.847 508.202 618.479 504.372C611.844 500.547 606.334 495.041 602.503 488.41C598.672 481.778 596.656 474.255 596.657 466.597Z" fill="#CCCCCC"/>
<path d="M650.255 510.221C674.349 510.221 693.881 490.689 693.881 466.595C693.881 442.501 674.349 422.969 650.255 422.969C626.161 422.969 606.629 442.501 606.629 466.595C606.629 490.689 626.161 510.221 650.255 510.221Z" fill="#F43F5E"/>
<path d="M723.164 602.855H468.903C466.483 602.852 464.162 601.89 462.45 600.178C460.739 598.466 459.776 596.146 459.773 593.725V339.464C459.776 337.044 460.739 334.723 462.45 333.011C464.162 331.3 466.483 330.337 468.903 330.334H723.164C725.585 330.337 727.906 331.3 729.617 333.011C731.329 334.723 732.292 337.044 732.295 339.464V593.725C732.292 596.146 731.329 598.466 729.617 600.178C727.906 601.89 725.585 602.852 723.164 602.855ZM468.903 333.988C467.451 333.99 466.059 334.567 465.032 335.594C464.005 336.621 463.427 338.014 463.426 339.466V593.727C463.427 595.179 464.005 596.572 465.032 597.599C466.059 598.626 467.451 599.203 468.903 599.205H723.164C724.617 599.203 726.009 598.626 727.036 597.599C728.063 596.572 728.641 595.179 728.642 593.727V339.466C728.641 338.014 728.063 336.621 727.036 335.594C726.009 334.567 724.617 333.99 723.164 333.988H468.903Z" fill="#CCCCCC"/>
<path d="M779.937 797.759H389.978V801.411H779.937V797.759Z" fill="#CCCCCC"/>
<path d="M402.293 774.955C409.094 774.955 414.608 769.442 414.608 762.64C414.608 755.839 409.094 750.325 402.293 750.325C395.491 750.325 389.978 755.839 389.978 762.64C389.978 769.442 395.491 774.955 402.293 774.955Z" fill="#F43F5E"/>
<path d="M779.937 920.903H389.978V924.556H779.937V920.903Z" fill="#CCCCCC"/>
<path d="M402.293 898.102C409.094 898.102 414.608 892.588 414.608 885.786C414.608 878.985 409.094 873.471 402.293 873.471C395.491 873.471 389.978 878.985 389.978 885.786C389.978 892.588 395.491 898.102 402.293 898.102Z" fill="#F43F5E"/>
<path d="M772.801 1061.13H649.563C647.434 1061.13 645.393 1060.29 643.888 1058.78C642.383 1057.27 641.536 1055.23 641.534 1053.1V1009.91C641.536 1007.78 642.383 1005.74 643.888 1004.24C645.393 1002.73 647.434 1001.88 649.563 1001.88H772.801C774.93 1001.88 776.97 1002.73 778.476 1004.24C779.981 1005.74 780.828 1007.78 780.83 1009.91V1053.1C780.828 1055.23 779.981 1057.27 778.476 1058.78C776.97 1060.29 774.93 1061.13 772.801 1061.13Z" fill="#F43F5E"/>
<path d="M442.464 774.955C449.265 774.955 454.779 769.442 454.779 762.64C454.779 755.839 449.265 750.325 442.464 750.325C435.662 750.325 430.149 755.839 430.149 762.64C430.149 769.442 435.662 774.955 442.464 774.955Z" fill="#F43F5E"/>
<path d="M482.635 774.955C489.437 774.955 494.951 769.442 494.951 762.64C494.951 755.839 489.437 750.325 482.635 750.325C475.834 750.325 470.32 755.839 470.32 762.64C470.32 769.442 475.834 774.955 482.635 774.955Z" fill="#F43F5E"/>
<path d="M442.464 898.102C449.265 898.102 454.779 892.588 454.779 885.786C454.779 878.985 449.265 873.471 442.464 873.471C435.662 873.471 430.149 878.985 430.149 885.786C430.149 892.588 435.662 898.102 442.464 898.102Z" fill="#F43F5E"/>
<path d="M482.635 898.102C489.437 898.102 494.951 892.588 494.951 885.786C494.951 878.985 489.437 873.471 482.635 873.471C475.834 873.471 470.32 878.985 470.32 885.786C470.32 892.588 475.834 898.102 482.635 898.102Z" fill="#F43F5E"/>
<path d="M1324.06 1333H42.9656C40.2232 1333 38.0017 1332.03 38.0017 1330.83C38.0017 1329.63 40.2232 1328.65 42.9656 1328.65H1324.06C1326.8 1328.65 1329.02 1329.63 1329.02 1330.83C1329.02 1332.03 1326.8 1333 1324.06 1333Z" fill="#3F3D56"/>
<path d="M1007.55 873.34C1008.42 873.74 1009.26 874.21 1010.06 874.744L1090.09 840.587L1092.95 819.506L1124.93 819.31L1123.04 867.661L1017.41 895.596C1017.18 896.33 1016.92 897.05 1016.61 897.752C1015.08 901.01 1012.63 903.745 1009.55 905.613C1006.47 907.48 1002.91 908.397 999.317 908.248C995.722 908.099 992.25 906.891 989.339 904.776C986.427 902.66 984.206 899.732 982.953 896.358C981.701 892.984 981.473 889.316 982.299 885.813C983.124 882.31 984.966 879.129 987.594 876.67C990.221 874.211 993.517 872.583 997.066 871.99C1000.62 871.397 1004.26 871.867 1007.55 873.34Z" fill="#FFB8B8"/>
<path d="M1136.56 1311.49H1114.68L1104.27 1227.11L1136.56 1227.11L1136.56 1311.49Z" fill="#FFB8B8"/>
<path d="M1099.05 1305.24H1141.24V1331.8H1072.49C1072.49 1324.76 1075.29 1318 1080.27 1313.02C1085.25 1308.04 1092.01 1305.24 1099.05 1305.24Z" fill="#2F2E41"/>
<path d="M1221.63 1305.31L1199.86 1307.45L1181.23 1224.5L1213.36 1221.34L1221.63 1305.31Z" fill="#FFB8B8"/>
<path d="M1183.7 1302.76L1225.68 1298.63L1228.29 1325.06L1159.87 1331.8C1159.53 1328.33 1159.87 1324.83 1160.88 1321.49C1161.9 1318.15 1163.56 1315.04 1165.77 1312.35C1167.98 1309.65 1170.7 1307.42 1173.78 1305.77C1176.86 1304.13 1180.23 1303.11 1183.7 1302.76Z" fill="#2F2E41"/>
<path d="M1142.64 730.014C1166.85 730.014 1186.47 710.393 1186.47 686.19C1186.47 661.987 1166.85 642.366 1142.64 642.366C1118.44 642.366 1098.82 661.987 1098.82 686.19C1098.82 710.393 1118.44 730.014 1142.64 730.014Z" fill="#FFB8B8"/>
<path d="M1109.79 1294.43C1107.91 1294.43 1106.09 1293.77 1104.65 1292.56C1103.21 1291.36 1102.24 1289.68 1101.91 1287.83C1090.59 1224.98 1053.58 1019.46 1052.7 1013.77C1052.68 1013.64 1052.67 1013.51 1052.67 1013.37V998.051C1052.67 997.493 1052.84 996.948 1053.17 996.495L1058.06 989.647C1058.29 989.317 1058.59 989.046 1058.95 988.852C1059.3 988.659 1059.69 988.549 1060.1 988.532C1087.97 987.225 1179.26 983.395 1183.67 988.905C1188.1 994.442 1186.53 1011.22 1186.17 1014.53L1186.19 1014.87L1227.2 1277.15C1227.53 1279.25 1227.01 1281.38 1225.77 1283.09C1224.53 1284.81 1222.66 1285.97 1220.58 1286.32L1194.96 1290.54C1193.05 1290.84 1191.1 1290.45 1189.45 1289.44C1187.81 1288.43 1186.58 1286.86 1185.99 1285.02C1178.07 1259.7 1151.5 1174.54 1142.3 1141.58C1142.24 1141.38 1142.11 1141.2 1141.93 1141.08C1141.75 1140.96 1141.53 1140.91 1141.31 1140.94C1141.1 1140.97 1140.9 1141.08 1140.76 1141.24C1140.62 1141.41 1140.55 1141.62 1140.55 1141.83C1141.01 1173.25 1142.12 1253.39 1142.5 1281.07L1142.54 1284.05C1142.56 1286.07 1141.82 1288.02 1140.47 1289.52C1139.12 1291.02 1137.25 1291.96 1135.24 1292.15L1110.54 1294.39C1110.29 1294.42 1110.04 1294.43 1109.79 1294.43Z" fill="#2F2E41"/>
<path d="M1114.83 747.246C1107.18 751.792 1102.61 760.147 1099.98 768.649C1095.12 784.388 1092.19 800.662 1091.27 817.109L1088.49 866.356L1054.13 996.912C1083.91 1022.11 1101.09 1016.38 1141.17 995.772C1181.26 975.163 1185.84 1002.64 1185.84 1002.64L1193.85 891.557L1205.3 770.167C1202.73 767.072 1199.82 764.275 1196.63 761.827C1186.05 753.596 1173.73 747.875 1160.61 745.095C1147.49 742.314 1133.92 742.548 1120.9 745.777L1114.83 747.246Z" fill="white"/>
<path d="M1103.67 899.707C1104.6 900.055 1105.49 900.475 1106.35 900.963L1185.48 861.357L1186.79 839.9L1219.43 837.65L1221.18 886.562L1115.44 921.533C1114.57 925.236 1112.6 928.589 1109.79 931.145C1106.97 933.701 1103.44 935.34 1099.68 935.843C1095.91 936.346 1092.07 935.69 1088.69 933.961C1085.3 932.232 1082.52 929.514 1080.71 926.166C1078.91 922.819 1078.17 919.001 1078.58 915.221C1079 911.441 1080.56 907.879 1083.05 905.006C1085.55 902.134 1088.85 900.089 1092.54 899.142C1096.22 898.196 1100.1 898.393 1103.67 899.707Z" fill="#FFB8B8"/>
<path d="M1204.73 770.723C1224.2 777.595 1227.63 852.04 1227.63 852.04C1204.73 839.442 1177.24 860.057 1177.24 860.057C1177.24 860.057 1171.51 840.587 1164.64 815.392C1162.57 808.305 1162.32 800.809 1163.92 793.6C1165.52 786.391 1168.92 779.705 1173.8 774.164C1173.8 774.164 1185.26 763.847 1204.73 770.723Z" fill="white"/>
<path d="M1181.94 697.78C1176.48 693.411 1169.03 701.351 1169.03 701.351L1164.66 662.037C1164.66 662.037 1137.36 665.308 1119.89 660.946C1102.41 656.584 1099.68 676.782 1099.68 676.782C1098.78 668.623 1098.6 660.401 1099.14 652.21C1100.23 642.382 1114.43 632.553 1139.54 626C1164.66 619.447 1177.77 647.842 1177.77 647.842C1195.24 656.577 1187.4 702.148 1181.94 697.78Z" fill="#2F2E41"/>
</g>
<defs>
<clipPath id="clip0_16_2">
<rect width="1329.02" height="1333" fill="white"/>
</clipPath>
</defs>
</svg>
